<svg width="225" height="279" viewBox="0 0 225 279" fill="none" xmlns="http://www.w3.org/2000/svg">
<rect width="225" height="279" rx="20" fill="#FE7C3E"/>
<path d="M51.0844 138.406V151.904H48.025V138.406H51.0844ZM53.3916 138.406H56.451V144.507L53.3916 144.975V138.406ZM68.2571 141.016C66.6914 141.016 66.0795 141.916 66.0795 143.661V149.204H63.0201V143.769C63.0201 142.456 63.4161 141.592 64.0819 141.016H58.2331V138.406H68.2571V141.016ZM78.8067 143.625V149.204H75.8552V143.751C75.8552 141.844 74.9194 140.746 73.2637 140.746C72.1659 140.746 71.1941 141.178 70.3483 141.61L69.3405 139.432C70.9242 138.55 72.3999 138.262 73.7856 138.262C76.6291 138.262 78.8067 139.882 78.8067 143.625ZM86.0813 138.406C89.6446 138.406 91.5163 140.188 91.5163 143.715C91.5163 147.297 89.4647 149.42 86.0813 149.42C82.662 149.42 80.6463 147.297 80.6463 143.715V138.406H86.0813ZM83.7058 143.715C83.7058 145.659 84.5156 146.811 86.0813 146.811C87.611 146.811 88.4568 145.659 88.4568 143.715C88.4568 141.934 87.773 141.016 86.0813 141.016H83.7058V143.715ZM93.2414 143.607L96.3008 143.212V149.204H93.2414V143.607ZM93.1514 141.016V138.406H97.5606C101.592 138.406 103.373 140.17 103.373 144.237V149.204H100.314V144.237C100.314 141.934 99.5402 141.016 97.5606 141.016H93.1514ZM108.74 138.406V149.204H105.681V138.406H108.74ZM116.585 143.607L119.644 143.212V149.204H116.585V143.607ZM116.495 141.016V138.406H120.904C124.935 138.406 126.717 140.17 126.717 144.237V149.204H123.657V144.237C123.657 141.934 122.883 141.016 120.904 141.016H116.495ZM128.55 138.406H131.609V144.507L128.55 144.975V138.406ZM133.239 149.204V146.595H135.345V142.384C135.345 141.358 135.147 141.016 134.319 141.016H133.527V138.406H135.273C137.541 138.406 138.405 139.396 138.405 141.538V149.204H133.239ZM140.618 138.406H143.678V144.507L140.618 144.975V138.406ZM155.484 141.016C153.918 141.016 153.306 141.916 153.306 143.661V149.204H150.247V143.769C150.247 142.456 150.643 141.592 151.309 141.016H145.46V138.406H155.484V141.016ZM166.033 143.625V149.204H163.082V143.751C163.082 141.844 162.146 140.746 160.491 140.746C159.393 140.746 158.421 141.178 157.575 141.61L156.567 139.432C158.151 138.55 159.627 138.262 161.012 138.262C163.856 138.262 166.033 139.882 166.033 143.625ZM173.308 138.406C176.871 138.406 178.743 140.188 178.743 143.715C178.743 147.297 176.691 149.42 173.308 149.42C169.889 149.42 167.873 147.297 167.873 143.715V138.406H173.308ZM170.933 143.715C170.933 145.659 171.742 146.811 173.308 146.811C174.838 146.811 175.684 145.659 175.684 143.715C175.684 141.934 175 141.016 173.308 141.016H170.933V143.715Z" fill="#FCFAF7"/>
</svg>
